<?xml version="1.0" encoding="UTF-8" standalone="no"?>
<svg width="80px" height="80px" viewBox="0 0 80 80" version="1.1" xmlns="http://www.w3.org/2000/svg" xmlns:xlink="http://www.w3.org/1999/xlink" xmlns:sketch="http://www.bohemiancoding.com/sketch/ns">
    <!-- Generator: Sketch 3.3.3 (12081) - http://www.bohemiancoding.com/sketch -->
    <title>Shape</title>
    <desc>Created with Sketch.</desc>
    <defs></defs>
    <g id="Page-1" stroke="none" stroke-width="1" fill="none" fill-rule="evenodd" sketch:type="MSPage">
        <g id="noun_144711_cc" sketch:type="MSLayerGroup" transform="translate(0.000000, -1.000000)" fill="#F47B64">
            <g id="Group" transform="translate(0.000000, 0.637820)" sketch:type="MSShapeGroup">
                <path d="M14.050326,0.36218 C6.267215,0.36218 0,6.62938 0,14.41258 L0,66.3221 C0,74.1052 6.267215,80.3622 14.050326,80.3622 L65.959893,80.3622 C73.743002,80.3622 80,74.1052 80,66.3221 L80,14.41258 C80,6.62938 73.743002,0.36218 65.959893,0.36218 L14.050326,0.36218 L14.050326,0.36218 Z M56.313705,21.01368 C56.4712497,20.9955117 56.629464,21.0416455 56.7525523,21.1416439 C56.8756406,21.2416422 56.9532004,21.387054 56.967684,21.54498 C57.946919,32.68148 54.479515,46.3409 39.35113,55.2045 C39.1469456,55.3274431 38.8887915,55.3152061 38.697152,55.1735 L29.53123,48.3272 C29.3510727,48.1919961 29.2638073,47.9658797 29.306425,47.7447 C31.946552,34.02368 40.155037,24.33958 56.262613,21.02358 C56.2794873,21.0194953 56.2965339,21.0161587 56.313703,21.01358 L56.313705,21.01368 Z M55.823221,22.34198 C42.980091,25.17128 35.624761,32.04438 32.096053,41.9921 C36.518079,44.0198 40.496901,46.8993 44.13335,50.4427 C54.041176,42.2467 56.47416,31.53958 55.823221,22.34198 L55.823221,22.34198 Z M46.677737,30.25108 C47.653472,30.20308 48.646896,30.48158 49.487802,31.10948 C51.410148,32.54478 51.812077,35.28758 50.376804,37.20978 C48.941509,39.1321 46.198755,39.524 44.276408,38.0886 C42.354342,36.65348 41.952111,33.92068 43.387406,31.99848 C44.105043,31.03728 45.154345,30.45218 46.258781,30.29198 C46.396836,30.27198 46.538346,30.25798 46.677737,30.25098 L46.677737,30.25108 Z M46.728827,31.43638 C46.627273,31.43638 46.522731,31.44638 46.422274,31.45738 C45.618619,31.57388 44.864968,31.99788 44.337717,32.70398 C43.283186,34.11628 43.569372,36.09458 44.981477,37.14898 C46.393951,38.2037 48.371958,37.91758 49.426489,36.50528 C50.480993,35.09298 50.195204,33.11488 48.782729,32.06028 C48.164935,31.59898 47.439705,31.40288 46.728827,31.43688 L46.728827,31.43638 Z M30.798312,36.55588 C31.0097787,36.5474771 31.2094971,36.6531729 31.3214787,36.8327526 C31.4334604,37.0123323 31.4404881,37.2381855 31.339888,37.42438 C29.779743,40.3813 29.048183,43.6229 28.264144,46.8663 C28.2191288,47.0558669 28.0832792,47.2109055 27.9012682,47.2804326 C27.7192573,47.3499596 27.5146407,47.324977 27.354705,47.2137 C25.106226,45.7025 22.299734,45.99 19.506959,46.6721 C19.2939615,46.722558 19.0705507,46.650733 18.9268631,46.4856033 C18.7831755,46.3204736 18.742915,46.0892804 18.822325,45.8853 C20.942182,40.4055 25.197407,37.51898 30.716565,36.56608 C30.7435483,36.5608432 30.770865,36.5575017 30.798315,36.55608 L30.798312,36.55588 Z M29.796907,37.97618 C25.499929,38.9631 22.296418,41.2208 20.385743,45.3028 C22.705756,44.84 25.138991,44.7102 27.303613,45.8342 C27.934588,43.2127 28.620439,40.5427 29.796907,37.97618 L29.796907,37.97618 Z M31.71797,43.1059 C31.256731,44.5504 30.866821,46.0476 30.55307,47.6122 L39.08545,53.9885 C40.573705,53.0989 41.936375,52.1626 43.193254,51.1886 C39.698489,47.8027 35.9093,45.0457 31.71797,43.1059 L31.71797,43.1059 Z M48.557924,49.6968 C48.864881,49.6693453 49.1411059,49.8831602 49.191466,50.1872 C50.145981,55.7062 48.859796,60.6776 44.409246,64.5135 C44.2441279,64.6565062 44.0134259,64.696386 43.809883,64.6171075 C43.6063402,64.5378291 43.4633889,64.3524141 43.438496,64.1354 C43.143571,61.2755 42.469378,58.5322 40.291223,56.9212 C40.1390045,56.8058542 40.0521631,56.6238624 40.0582557,56.432975 C40.0643484,56.2420875 40.1626187,56.066004 40.321883,55.9606 C43.114065,54.1337 45.918146,52.3529 48.179847,49.8909 C48.2773263,49.7814016 48.4121374,49.7121921 48.557929,49.6968 L48.557924,49.6968 Z M29.081618,50.3303 C29.20074,50.3261396 29.3183212,50.3582192 29.418825,50.4223 C29.4363686,50.4317622 29.4534205,50.4421088 29.469915,50.4533 L36.489968,55.6954 C36.7472556,55.8886309 36.8018529,56.2525804 36.612589,56.5128 L34.875458,58.8529 C34.7823995,58.9795155 34.6426051,59.0636965 34.4871662,59.0867205 C34.3317273,59.1097446 34.1735326,59.0697025 34.047766,58.9755 L27.027712,53.7334 C26.898091,53.6402163 26.8118471,53.498408 26.7887311,53.3404509 C26.7656152,53.1824937 26.8076073,53.021919 26.905091,52.8955 L28.642223,50.5657 C28.746707,50.4262186 28.9075969,50.3401699 29.081615,50.3307 L29.081618,50.3303 Z M48.179842,51.5361 C46.157777,53.5038 43.865833,55.029 41.609399,56.5022 C43.398548,58.1642 44.096838,60.5049 44.439901,62.8479 C47.639359,59.681 48.689545,55.9098 48.179842,51.5361 L48.179842,51.5361 Z M29.234894,51.7404 L28.192615,53.1404 L34.272574,57.6773 L35.314853,56.2876 L29.234894,51.7404 L29.234894,51.7404 Z" id="Shape"></path>
            </g>
        </g>
    </g>
</svg>